<?xml version="1.0" standalone="no"?>
<!DOCTYPE svg PUBLIC "-//W3C//DTD SVG 20010904//EN"
 "http://www.w3.org/TR/2001/REC-SVG-20010904/DTD/svg10.dtd">
<svg version="1.0" xmlns="http://www.w3.org/2000/svg"
 width="16.000000pt" height="16.000000pt" viewBox="0 0 16.000000 16.000000"
 preserveAspectRatio="xMidYMid meet">
<metadata>
Created by potrace 1.11, written by Peter Selinger 2001-2013
</metadata>
<g transform="translate(0.000000,16.000000) scale(0.006154,-0.006154)"
fill="#000000" stroke="none">
<path d="M1085 2500 c-3 -5 -1 -10 4 -10 6 0 11 5 11 10 0 6 -2 10 -4 10 -3 0
-8 -4 -11 -10z"/>
<path d="M1040 2485 c0 -8 -4 -15 -10 -15 -5 0 -10 6 -10 13 0 6 -9 -1 -19
-17 -17 -26 -20 -27 -29 -10 -8 15 -21 19 -63 17 -31 0 -55 -7 -60 -15 -7 -10
-9 -9 -9 4 0 14 -7 16 -37 11 -21 -3 -45 -12 -54 -19 -8 -8 -20 -14 -26 -14
-16 0 -71 -31 -100 -56 -48 -41 -108 -106 -108 -116 0 -4 -9 -14 -20 -22 -11
-9 -16 -16 -12 -16 5 0 -7 -14 -27 -32 -22 -19 -36 -41 -36 -55 0 -13 -4 -23
-9 -23 -5 0 -7 -9 -4 -20 3 -12 -6 -33 -25 -56 -17 -21 -29 -40 -27 -43 2 -4
-1 -28 -6 -55 -6 -31 -5 -53 1 -61 6 -7 6 -23 0 -46 -6 -18 -10 -46 -10 -61 0
-21 -11 -35 -44 -60 -24 -18 -51 -47 -59 -64 -14 -28 -22 -33 -64 -38 -96 -11
-144 -10 -153 3 -6 10 -9 9 -15 -8 -7 -24 -2 -46 31 -119 28 -62 31 -84 8 -75
-13 5 -13 7 -2 14 10 7 9 9 -4 9 -9 0 -22 8 -27 18 -9 15 -10 13 -11 -10 0
-15 9 -42 20 -61 18 -30 25 -69 21 -119 0 -9 -10 -20 -21 -23 -20 -6 -20 -15
-20 -626 l0 -619 485 0 485 0 0 90 c0 49 -5 99 -11 112 -5 13 -30 37 -55 53
-51 34 -62 57 -43 92 10 19 10 28 1 41 -17 24 -42 82 -42 96 1 17 70 -66 70
-84 0 -8 18 -46 40 -84 48 -82 58 -115 66 -228 5 -82 17 -111 27 -70 4 16 5
16 6 0 1 -16 12 -18 91 -18 l91 0 -7 36 c-8 44 7 40 26 -6 l12 -30 150 0 c145
0 150 1 145 20 -7 27 20 27 28 -1 9 -26 26 -20 45 17 8 16 23 35 33 42 9 7 17
19 17 27 0 8 8 19 18 24 27 14 50 -40 32 -74 -10 -19 -17 -22 -31 -15 -26 15
-38 12 -34 -8 2 -9 4 -20 4 -24 1 -5 24 -8 52 -8 l51 0 -7 32 c-4 18 -18 59
-32 92 -25 59 -25 86 0 86 16 0 62 -96 78 -162 l11 -48 399 0 399 0 0 490 c0
478 0 490 -19 490 -11 0 -23 -4 -26 -10 -8 -14 -35 -13 -35 1 0 16 30 78 57
118 20 30 23 46 22 130 0 121 -14 165 -51 169 -16 2 -28 8 -28 13 0 5 -5 9
-10 9 -6 0 -6 -7 2 -19 9 -15 7 -24 -8 -47 -11 -16 -30 -60 -43 -99 -12 -38
-29 -82 -37 -98 -19 -35 -9 -54 17 -31 18 17 20 16 34 -2 8 -10 15 -25 15 -32
0 -19 -31 -62 -45 -62 -7 0 -15 -7 -19 -15 -7 -19 -26 -20 -26 -2 0 8 -7 15
-15 16 -25 3 -59 3 -80 -1 -15 -2 -19 2 -17 15 3 16 0 17 -18 7 -40 -21 -31
-3 36 71 100 112 143 200 111 227 -12 10 -25 -2 -73 -65 -32 -42 -75 -93 -94
-112 -64 -65 -63 -59 -35 -166 14 -53 25 -112 25 -131 l0 -33 -27 25 c-14 13
-31 34 -37 46 -11 21 -39 38 -35 21 1 -4 -1 -16 -6 -26 -5 -11 -2 -24 8 -35
20 -22 19 -34 -4 -50 -14 -10 -23 -10 -46 0 -54 23 -138 86 -182 134 -24 27
-73 79 -109 116 -85 87 -172 130 -172 86 0 -6 -14 -24 -31 -39 -32 -28 -32
-28 -15 -63 9 -19 16 -44 16 -55 0 -19 -2 -20 -21 -9 -11 7 -23 25 -26 40 -5
26 -8 24 -98 -70 -89 -92 -93 -98 -79 -119 8 -12 14 -27 14 -33 0 -14 -37 -13
-43 3 -2 6 -7 9 -11 6 -8 -8 -31 -103 -40 -171 -5 -32 -14 -53 -29 -63 -32
-22 -35 -19 -31 28 l4 42 -14 -45 -14 -45 -2 35 c-2 28 -4 30 -7 10 -3 -14 -8
-29 -12 -33 -13 -13 -40 21 -34 42 4 17 -1 20 -33 23 -40 3 -61 28 -24 28 12
0 18 4 15 10 -3 6 0 10 7 11 7 0 -6 6 -30 14 -58 18 -101 49 -137 97 -17 23
-44 46 -61 54 -49 21 -136 117 -177 196 -38 74 -69 192 -60 228 3 10 1 32 -5
48 -5 16 -7 34 -3 40 4 7 4 37 1 67 -3 30 -3 55 1 55 14 0 22 57 20 142 -1 48
2 95 7 105 6 10 13 54 16 98 9 121 24 172 55 183 14 5 49 29 76 54 28 24 67
54 88 67 20 12 37 28 37 34 0 7 12 13 26 13 14 1 36 11 48 23 12 12 27 21 33
21 5 0 24 12 41 28 103 90 111 94 147 90 30 -3 35 -1 35 17 1 20 1 20 18 0 21
-25 50 -26 63 -2 8 13 6 19 -6 23 -12 5 -13 9 -4 20 18 22 5 26 -34 9 l-37
-15 0 30 c0 23 -4 28 -16 23 -9 -3 -20 0 -24 7 -7 11 -14 11 -35 2 -37 -17
-47 -15 -40 8 10 32 -5 46 -24 22 -16 -21 -16 -21 -58 -2 -36 16 -43 16 -43 5z
m-500 -877 c0 -5 -4 -8 -10 -8 -5 0 -10 10 -10 23 0 18 2 19 10 7 5 -8 10 -18
10 -22z m-316 -111 c0 -9 -1 -35 -2 -57 -2 -30 -6 -38 -16 -34 -8 3 -18 19
-21 35 -7 31 -15 35 -32 18 -7 -7 -15 -6 -26 5 -8 9 -28 21 -44 28 -26 12 -23
13 47 18 93 8 95 7 94 -13z m1 -227 c10 -20 12 -31 4 -36 -15 -9 -26 5 -34 45
-8 40 7 35 30 -9z m-175 -50 c0 -5 -2 -10 -4 -10 -3 0 -8 5 -11 10 -3 6 -1 10
4 10 6 0 11 -4 11 -10z m1690 -227 c6 -7 10 -15 10 -17 0 -6 26 -39 53 -68 9
-10 17 -21 17 -25 -1 -14 34 -73 43 -73 5 0 -2 14 -14 31 l-22 31 22 -11 c12
-7 27 -24 34 -39 6 -15 18 -35 27 -44 28 -31 36 -43 53 -77 22 -45 23 -68 1
-51 -26 22 -66 99 -58 112 5 10 4 10 -5 2 -10 -9 -2 -43 36 -155 26 -79 52
-149 58 -155 56 -64 146 -185 128 -173 -10 6 -37 38 -61 71 -50 70 -75 74 -80
15 -3 -36 -4 -37 -38 -34 -19 2 -34 7 -33 12 0 4 -5 11 -11 15 -16 10 -4 29
26 40 30 12 31 26 2 34 -18 5 -20 8 -9 15 16 10 11 13 -54 35 -27 9 -61 25
-75 36 -22 18 -23 21 -8 30 15 9 15 12 0 43 -15 31 -16 31 -22 9 -8 -35 -24
-28 -35 14 -6 26 -6 39 2 41 7 3 4 17 -8 41 -11 20 -19 42 -19 49 0 7 -4 13
-9 13 -6 0 -6 11 0 29 8 23 15 27 34 23 30 -5 34 21 8 50 -10 11 -17 37 -17
66 -1 27 -9 60 -19 75 -9 14 -17 34 -17 44 1 18 7 12 60 -54z m450 -143 c0 -5
-5 -10 -11 -10 -5 0 -7 5 -4 10 3 6 8 10 11 10 2 0 4 -4 4 -10z m-540 -51 c0
-18 -4 -28 -10 -24 -6 3 -10 -4 -10 -16 0 -17 -3 -20 -11 -12 -8 8 -8 17 0 31
6 11 11 30 11 42 0 12 5 18 10 15 6 -3 10 -20 10 -36z m740 -149 c0 -11 -7
-20 -15 -20 -15 0 -21 21 -8 33 12 13 23 7 23 -13z m-1430 -29 c0 -12 -20 -25
-27 -18 -7 7 6 27 18 27 5 0 9 -4 9 -9z m129 -30 c0 -9 -3 -11 -5 -5 -3 7 -14
10 -24 7 -22 -6 -26 7 -8 25 14 14 38 -3 37 -27z m601 -11 c-6 -12 -8 -30 -4
-42 4 -14 2 -18 -5 -14 -12 8 -14 48 -4 85 5 20 7 21 15 7 5 -10 5 -24 -2 -36z
m-139 -60 c28 -52 56 -102 64 -110 21 -23 19 -50 -4 -50 -11 0 -26 12 -34 28
-7 15 -37 70 -65 123 -29 53 -49 99 -45 103 18 17 39 -6 84 -94z m-745 29 c18
-37 18 -46 -4 -51 -15 -4 -20 4 -28 48 -8 44 -7 51 4 42 7 -7 20 -24 28 -39z
m144 31 c0 -5 -2 -10 -4 -10 -3 0 -8 5 -11 10 -3 6 -1 10 4 10 6 0 11 -4 11
-10z m435 -105 c15 -47 35 -90 44 -95 10 -6 11 -10 3 -10 -10 0 -10 -5 -2 -21
7 -11 9 -27 6 -35 -3 -9 1 -29 10 -46 20 -38 9 -51 -17 -19 -21 26 -24 47 -9
56 12 8 -49 75 -68 75 -7 0 -21 13 -30 30 -11 20 -25 30 -40 30 -13 0 -21 4
-17 9 3 5 1 12 -5 16 -15 9 -12 25 5 25 8 0 15 4 15 10 0 5 -14 7 -32 4 l-33
-6 24 18 c24 17 86 43 107 44 6 0 24 -38 39 -85z m-185 65 c0 -5 -2 -10 -4
-10 -3 0 -8 5 -11 10 -3 6 -1 10 4 10 6 0 11 -4 11 -10z m-110 -56 c0 -8 -4
-12 -10 -9 -5 3 -10 10 -10 16 0 5 5 9 10 9 6 0 10 -7 10 -16z m110 -14 c0 -5
-4 -10 -10 -10 -5 0 -10 5 -10 10 0 6 5 10 10 10 6 0 10 -4 10 -10z m559 -14
c12 -14 5 -96 -8 -96 -11 0 -32 40 -26 50 3 4 1 20 -5 34 -8 22 -7 26 9 26 10
0 24 -6 30 -14z m316 5 c3 -5 1 -12 -5 -16 -5 -3 -10 1 -10 9 0 18 6 21 15 7z
m-575 -45 c0 -8 -9 -24 -20 -37 -16 -20 -19 -21 -20 -6 0 9 5 17 10 17 6 0 10
9 10 20 0 11 5 20 10 20 6 0 10 -6 10 -14z m-780 -5 c0 -5 13 -12 29 -16 27
-6 61 -48 48 -61 -3 -3 -19 5 -36 17 -35 26 -67 69 -51 69 5 0 10 -4 10 -9z
m470 -31 c0 -5 -4 -10 -10 -10 -5 0 -10 5 -10 10 0 6 5 10 10 10 6 0 10 -4 10
-10z m100 -16 c0 -8 -6 -14 -14 -14 -9 0 -12 7 -9 20 6 22 23 18 23 -6z m547
-56 c-3 -7 -5 -2 -5 12 0 14 2 19 5 13 2 -7 2 -19 0 -25z m-1121 -85 c18 -39
36 -83 40 -97 3 -15 10 -29 15 -32 12 -7 11 -24 -1 -24 -30 0 -120 186 -120
245 l1 20 15 -20 c9 -11 31 -52 50 -92z m1095 81 c11 -13 10 -21 -6 -49 -14
-28 -21 -32 -36 -25 -19 11 -20 33 -1 52 7 7 12 18 12 25 0 18 15 16 31 -3z
m-1172 -80 c7 -26 10 -48 8 -51 -7 -6 -37 64 -37 87 0 34 17 14 29 -36z m656
16 c2 -30 -8 -39 -20 -19 -8 12 3 64 12 55 3 -3 7 -19 8 -36z m636 -57 c9 -29
7 -36 -14 -59 -31 -33 -50 -25 -34 15 11 30 3 66 -12 56 -18 -11 -24 18 -6 31
24 18 52 -1 66 -43z m-452 -8 c1 -6 -12 -16 -28 -22 -24 -9 -29 -8 -24 3 3 8
11 14 19 14 8 0 14 11 15 28 0 24 1 25 9 7 5 -11 9 -25 9 -30z m144 8 c-3 -7
0 -13 7 -13 10 0 10 -3 0 -15 -9 -11 -17 -12 -31 -4 -18 9 -19 7 -14 -18 5
-25 4 -26 -4 -5 -6 12 -8 29 -5 37 4 8 0 23 -7 33 -13 15 -12 16 4 3 9 -7 17
-20 17 -27 0 -8 5 -14 10 -14 6 0 10 9 10 20 0 11 -5 20 -11 20 -5 0 -7 4 -4
10 8 14 34 -11 28 -27z m-242 -46 c-8 -8 -11 -3 -11 19 1 25 2 27 11 11 8 -14
8 -22 0 -30z m455 -22 c-19 -29 -36 -25 -36 9 0 33 20 50 39 32 12 -13 12 -18
-3 -41z m-276 -11 c0 -8 -2 -14 -4 -14 -2 0 -11 -3 -20 -6 -13 -5 -13 -2 -3
19 12 26 27 27 27 1z m-80 -25 c0 -11 -4 -17 -10 -14 -5 3 -10 13 -10 21 0 8
5 14 10 14 6 0 10 -9 10 -21z m127 -1 c-3 -8 -6 -5 -6 6 -1 11 2 17 5 13 3 -3
4 -12 1 -19z m261 -16 c22 -17 22 -19 7 -32 -31 -26 -45 -21 -45 16 0 39 5 41
38 16z m74 -34 c-7 -7 -12 -8 -12 -2 0 14 12 26 19 19 2 -3 -1 -11 -7 -17z"/>
<path d="M1296 2441 c-3 -5 1 -11 9 -15 15 -6 29 7 18 18 -9 9 -21 8 -27 -3z"/>
<path d="M1372 2336 c-7 -16 -8 -26 -1 -26 12 0 22 25 17 41 -2 6 -9 0 -16
-15z"/>
<path d="M1026 1871 c-6 -9 54 -25 62 -16 7 7 1 11 -30 19 -15 3 -29 2 -32 -3z"/>
<path d="M1105 1840 c3 -5 8 -10 11 -10 2 0 4 5 4 10 0 6 -5 10 -11 10 -5 0
-7 -4 -4 -10z"/>
<path d="M950 1716 c0 -7 7 -19 15 -26 8 -7 15 -18 15 -24 0 -7 16 -18 35 -26
19 -8 35 -17 35 -22 0 -4 12 -14 28 -22 23 -12 29 -12 40 0 11 12 11 17 -1 29
-8 8 -18 11 -22 7 -5 -4 -6 -2 -2 3 3 6 24 10 46 10 49 -1 52 9 9 35 -18 10
-38 23 -44 29 -6 5 -44 12 -83 15 -56 4 -71 2 -71 -8z"/>
<path d="M1536 1537 c-28 -21 -13 -57 25 -57 36 0 37 5 2 24 -16 8 -23 16 -18
16 31 4 49 10 58 19 16 16 -45 14 -67 -2z"/>
<path d="M1644 1534 c9 -8 16 -19 16 -24 0 -4 8 -7 18 -5 33 5 40 -13 36 -93
-6 -117 -11 -169 -19 -181 -3 -6 2 -14 12 -18 10 -4 21 -11 25 -17 5 -7 8 -4
8 6 0 9 8 19 18 23 22 6 42 45 42 80 0 14 9 30 20 37 11 7 18 21 16 33 -2 11
-1 14 1 7 3 -9 19 -12 46 -10 32 2 43 -1 45 -14 4 -21 60 -32 80 -16 14 11 15
10 8 -7 -6 -16 -5 -17 5 -8 10 10 9 16 -4 31 -9 10 -17 22 -17 26 0 4 -17 30
-37 56 -35 44 -78 69 -85 49 -2 -5 -16 -2 -32 6 -15 8 -37 15 -47 15 -10 0
-21 5 -24 10 -7 11 -28 -6 -38 -30 -4 -10 -6 -8 -6 6 -1 22 -52 54 -86 54 -15
0 -15 -1 -1 -16z"/>
<path d="M2081 1408 c-22 -35 -20 -55 7 -98 9 -14 30 -49 48 -77 l32 -53 12
30 c7 17 18 30 26 30 7 0 16 5 20 12 5 8 2 9 -9 5 -23 -9 -47 29 -47 75 0 28
-8 45 -35 73 l-34 37 -20 -34z"/>
<path d="M2 1285 c0 -16 2 -22 5 -12 2 9 2 23 0 30 -3 6 -5 -1 -5 -18z"/>
<path d="M2261 1284 c-13 -13 -22 -26 -19 -29 2 -3 17 9 33 25 34 35 21 39
-14 4z"/>
<path d="M2090 1045 c0 -8 4 -15 9 -15 6 0 22 -11 37 -25 35 -32 42 -24 18 20
-19 37 -64 51 -64 20z"/>
<path d="M1211 654 c0 -11 3 -14 6 -6 3 7 2 16 -1 19 -3 4 -6 -2 -5 -13z"/>
</g>
</svg>
